<svg xmlns="http://www.w3.org/2000/svg" width="23" height="22" viewBox="0 0 23 22">
  <g id="_104" data-name="104" transform="translate(-990 -318)">
    <rect id="Rectangle_698" data-name="Rectangle 698" width="23" height="22" rx="1" transform="translate(990 318)" fill="#ff7800"/>
    <path id="Path_15946" data-name="Path 15946" d="M4.494,0H3.076V-6.854L.984-6.141v-1.2L4.313-8.561h.182Zm7.65-3.566a4.653,4.653,0,0,1-.688,2.774A2.432,2.432,0,0,1,9.361.143,2.464,2.464,0,0,1,7.278-.769a4.455,4.455,0,0,1-.718-2.7V-4.943A4.583,4.583,0,0,1,7.249-7.7a2.454,2.454,0,0,1,2.1-.92,2.468,2.468,0,0,1,2.089.9,4.443,4.443,0,0,1,.706,2.684ZM10.721-5.16a3.61,3.61,0,0,0-.328-1.761A1.12,1.12,0,0,0,9.35-7.48a1.119,1.119,0,0,0-1.025.53,3.336,3.336,0,0,0-.346,1.655v1.934A3.7,3.7,0,0,0,8.313-1.58a1.122,1.122,0,0,0,1.049.586,1.1,1.1,0,0,0,1.014-.542,3.484,3.484,0,0,0,.346-1.7Zm7.607,2.119h1.061V-1.9H18.328V0H16.9V-1.9H13.218l-.041-.867,3.68-5.766h1.471Zm-3.656,0H16.9V-6.6l-.105.188Z" transform="translate(991.017 333)" fill="#fff"/>
  </g>
</svg>
