<svg id="ic_calendar" xmlns="http://www.w3.org/2000/svg" width="24" height="24" viewBox="0 0 24 24">
  <rect id="Rectangle_45_Copy_5" data-name="Rectangle 45 Copy 5" width="24" height="24" fill="none"/>
  <g id="calendar" transform="translate(1.5 1.5)">
    <path id="Shape" d="M19.312,21H1.688A1.689,1.689,0,0,1,0,19.312V3.188A1.689,1.689,0,0,1,1.688,1.5H4.5V.843a.844.844,0,0,1,1.688,0V1.5h8.625V.843a.844.844,0,0,1,1.687,0V1.5h2.813A1.689,1.689,0,0,1,21,3.188V19.312A1.689,1.689,0,0,1,19.312,21ZM1.688,7.5V19.312H19.312V7.5Zm0-4.312V5.812H19.312V3.188H16.5v.468a.844.844,0,1,1-1.687,0V3.188H6.188v.468a.844.844,0,1,1-1.687,0V3.188ZM11.25,16.547H9.75a.75.75,0,0,1,0-1.5h1.5a.75.75,0,0,1,0,1.5Zm-4.5,0H5.25a.75.75,0,0,1,0-1.5h1.5a.75.75,0,0,1,0,1.5Zm9-4.547h-1.5a.75.75,0,1,1,0-1.5h1.5a.75.75,0,1,1,0,1.5Zm-4.5,0H9.75a.75.75,0,1,1,0-1.5h1.5a.75.75,0,1,1,0,1.5Zm-4.5,0H5.25a.75.75,0,0,1,0-1.5h1.5a.75.75,0,0,1,0,1.5Z" fill="#707070"/>
  </g>
</svg>
