<svg xmlns="http://www.w3.org/2000/svg" width="16" height="16" viewBox="0 0 16 16">
  <g id="Icon_ionic-ios-checkmark-circle-outline" data-name="Icon ionic-ios-checkmark-circle-outline" transform="translate(-3.375 -3.375)">
    <path id="Path_39700" data-name="Path 39700" d="M19.027,12.914l-.706-.664a.159.159,0,0,0-.112-.044h0a.152.152,0,0,0-.112.044L13.2,16.759,11.421,15.13a.165.165,0,0,0-.225,0l-.714.653a.138.138,0,0,0,0,.209l2.246,2.055a.739.739,0,0,0,.469.209.772.772,0,0,0,.465-.2h0l5.363-4.931A.147.147,0,0,0,19.027,12.914Z" transform="translate(-3.376 -3.854)" fill="#449577"/>
    <path id="Path_39701" data-name="Path 39701" d="M11.375,4.452a6.92,6.92,0,1,1-4.9,2.027,6.877,6.877,0,0,1,4.9-2.027m0-1.077a8,8,0,1,0,8,8,8,8,0,0,0-8-8Z" fill="#449577"/>
  </g>
</svg>
