<svg xmlns="http://www.w3.org/2000/svg" xmlns:xlink="http://www.w3.org/1999/xlink" width="16" height="16" viewBox="0 0 16 16">
  <defs>
    <clipPath id="clip-path">
      <rect id="Rectangle_6052" data-name="Rectangle 6052" width="13" height="13" fill="none"/>
    </clipPath>
  </defs>
  <g id="ic_contact" transform="translate(-447 -762)">
    <g id="Group_10727" data-name="Group 10727" transform="translate(449 764)">
      <g id="Group_10677" data-name="Group 10677" clip-path="url(#clip-path)">
        <path id="Path_15874" data-name="Path 15874" d="M10.512,7.82a.969.969,0,0,0-1.465,0c-.342.34-.685.679-1.021,1.024a.2.2,0,0,1-.282.052c-.222-.121-.457-.219-.67-.351A10.6,10.6,0,0,1,4.513,6.214a6.06,6.06,0,0,1-.918-1.47.211.211,0,0,1,.052-.27c.342-.331.676-.67,1.013-1.01a.973.973,0,0,0,0-1.5c-.268-.27-.535-.535-.8-.806S3.3.6,3.025.33a.975.975,0,0,0-1.464,0C1.215.672.884,1.02.534,1.354A1.664,1.664,0,0,0,.01,2.479,4.762,4.762,0,0,0,.378,4.531,12.461,12.461,0,0,0,2.591,8.217a13.69,13.69,0,0,0,4.535,3.548,6.566,6.566,0,0,0,2.512.731,1.841,1.841,0,0,0,1.58-.6c.293-.328.625-.627.935-.941a.979.979,0,0,0,.005-1.49q-.82-.824-1.646-1.643" transform="translate(0 0)"/>
      </g>
    </g>
    <rect id="Rectangle_6098" data-name="Rectangle 6098" width="16" height="16" transform="translate(447 762)" fill="none" opacity="0.118"/>
  </g>
</svg>
