<svg xmlns="http://www.w3.org/2000/svg" width="22" height="22" viewBox="0 0 22 22">
  <g id="Group_21087" data-name="Group 21087" transform="translate(-1006 -295)">
    <rect id="Rectangle_4188" data-name="Rectangle 4188" width="22" height="22" rx="1" transform="translate(1006 295)" fill="#90699b"/>
    <path id="Path_15945" data-name="Path 15945" d="M.762,0V-8.531H3.387A3.986,3.986,0,0,1,5.4-8.024,3.534,3.534,0,0,1,6.785-6.583a4.446,4.446,0,0,1,.5,2.124v.393a4.458,4.458,0,0,1-.489,2.115A3.5,3.5,0,0,1,5.414-.516,4.016,4.016,0,0,1,3.4,0ZM2.52-7.107v5.7h.85a1.909,1.909,0,0,0,1.576-.674A3.045,3.045,0,0,0,5.5-4.014v-.451a3.093,3.093,0,0,0-.539-1.972,1.9,1.9,0,0,0-1.576-.671Zm7.8,5.7h3.732V0H8.561V-8.531h1.758Z" transform="translate(1010 310)" fill="#fff"/>
  </g>
</svg>
