<svg xmlns="http://www.w3.org/2000/svg" width="16" height="16" viewBox="0 0 16 16">
  <g id="Group_22197" data-name="Group 22197" transform="translate(-613.737 -727)">
    <path id="Path_39697" data-name="Path 39697" d="M18.575,17.669l-2.106-2.106,2.106-2.106a.639.639,0,1,0-.9-.9L15.565,14.66l-2.106-2.106a.639.639,0,1,0-.9.9l2.106,2.106-2.106,2.106a.617.617,0,0,0,0,.9.634.634,0,0,0,.9,0l2.106-2.106,2.106,2.106a.642.642,0,0,0,.9,0A.634.634,0,0,0,18.575,17.669Z" transform="translate(606.172 719.437)" fill="#b1b1b1"/>
    <path id="Path_39698" data-name="Path 39698" d="M11.375,4.452a6.92,6.92,0,1,1-4.9,2.027,6.877,6.877,0,0,1,4.9-2.027m0-1.077a8,8,0,1,0,8,8,8,8,0,0,0-8-8Z" transform="translate(610.362 723.625)" fill="#b1b1b1"/>
  </g>
</svg>
