<svg xmlns="http://www.w3.org/2000/svg" width="33" height="33" viewBox="0 0 33 33">
  <g id="ic_home" transform="translate(-882 -149.891)">
    <rect id="Rectangle_97" data-name="Rectangle 97" width="33" height="33" transform="translate(882 149.891)" fill="none" opacity="0.437"/>
    <g id="Group_16" data-name="Group 16" transform="translate(883.451 153.869)">
      <g id="Group_15" data-name="Group 15">
        <path id="Path_48" data-name="Path 48" d="M117.594,145.12H100.125a1.192,1.192,0,0,1-1.187-1.081l-1-10.642H95.087a1.192,1.192,0,0,1-.744-2.124l13.567-10.826a1.133,1.133,0,0,1,.34-.282,1.19,1.19,0,0,1,1.224.024c.022.015.05.034.079.056a1.306,1.306,0,0,1,.207.17l13.609,10.857a1.192,1.192,0,0,1-.744,2.124H119.77l-.989,10.641A1.193,1.193,0,0,1,117.594,145.12Zm-7.529-2.384h6.442L117.5,132.1a1.192,1.192,0,0,1,1.187-1.082h.537l-10.365-8.27-10.364,8.27h.536a1.192,1.192,0,0,1,1.187,1.081l1,10.642h6.444l.013-4.875a1.192,1.192,0,0,1,2.384,0Z" transform="translate(-93.895 -120.009)" fill="#fff"/>
      </g>
    </g>
  </g>
</svg>
