<svg xmlns="http://www.w3.org/2000/svg" width="16.65" height="12.488" viewBox="0 0 16.65 12.488">
  <path id="Icon_awesome-chart-line" data-name="Icon awesome-chart-line" d="M16.13,14.906H2.081V5.02a.52.52,0,0,0-.52-.52H.52A.52.52,0,0,0,0,5.02V15.947a1.041,1.041,0,0,0,1.041,1.041H16.13a.52.52,0,0,0,.52-.52V15.427A.52.52,0,0,0,16.13,14.906ZM15.089,5.541H11.25A.78.78,0,0,0,10.7,6.873l1.054,1.054L9.366,10.313,6.98,7.927a1.04,1.04,0,0,0-1.472,0L3.274,10.161a.52.52,0,0,0,0,.736l.736.736a.52.52,0,0,0,.736,0l1.5-1.5L8.63,12.52a1.04,1.04,0,0,0,1.472,0L13.223,9.4l1.054,1.054A.78.78,0,0,0,15.609,9.9V6.061A.52.52,0,0,0,15.089,5.541Z" transform="translate(0 -4.5)" fill="#fff"/>
</svg>
