<svg xmlns="http://www.w3.org/2000/svg" width="24" height="24" viewBox="0 0 24 24">
  <g id="ic_link" transform="translate(-451 -687)">
    <rect id="Rectangle_6099" data-name="Rectangle 6099" width="24" height="24" transform="translate(451 687)" fill="none" opacity="0.177"/>
    <path id="link" d="M3.71,11.5A2.792,2.792,0,0,1,6.5,8.71h3.6V7H6.5a4.5,4.5,0,0,0,0,9h3.6v-1.71H6.5A2.792,2.792,0,0,1,3.71,11.5m3.69.9h7.2V10.6H7.4v1.8M15.5,7H11.9V8.71h3.6a2.79,2.79,0,1,1,0,5.579H11.9V16h3.6a4.5,4.5,0,1,0,0-9Z" transform="translate(446.636 698.191) rotate(-45)" fill="#18a098"/>
  </g>
</svg>
