<svg xmlns="http://www.w3.org/2000/svg" xmlns:xlink="http://www.w3.org/1999/xlink" width="15.769" height="17.389" viewBox="0 0 15.769 17.389">
  <defs>
    <clipPath id="clip-path">
      <rect id="Rectangle_6685" data-name="Rectangle 6685" width="15.769" height="17.389" fill="#fff"/>
    </clipPath>
  </defs>
  <g id="Group_10551" data-name="Group 10551" clip-path="url(#clip-path)">
    <path id="Path_5432" data-name="Path 5432" d="M0,8.685Q0,5.092,0,1.5A1.415,1.415,0,0,1,1.121.032,1.854,1.854,0,0,1,1.516,0Q7.079,0,12.642,0a1.416,1.416,0,0,1,1.517,1.516q0,2.01,0,4.02a.614.614,0,0,1-.8.655.607.607,0,0,1-.408-.636q0-1.934,0-3.868c0-.057,0-.114,0-.171,0-.246-.057-.3-.3-.3-.43,0-.859,0-1.289,0H1.6c-.352,0-.382.03-.382.373q0,7.111,0,14.221c0,.335.033.367.37.367q1.9,0,3.81,0a.612.612,0,0,1,.669.556.594.594,0,0,1-.582.655c-.044,0-.088,0-.133,0q-1.914,0-3.829,0A1.417,1.417,0,0,1,0,15.872q0-3.593,0-7.187" transform="translate(0 0.001)" fill="#fff"/>
    <path id="Path_5433" data-name="Path 5433" d="M85.329,99.653a4.648,4.648,0,1,1-4.642-4.66,4.64,4.64,0,0,1,4.642,4.66m-1.213-.006a3.435,3.435,0,1,0-3.431,3.433,3.431,3.431,0,0,0,3.431-3.433" transform="translate(-69.56 -86.905)" fill="#fff"/>
    <path id="Path_5434" data-name="Path 5434" d="M41.271,48.645c-.871,0-1.742,0-2.613,0a.6.6,0,0,1-.591-.417.575.575,0,0,1,.208-.658.8.8,0,0,1,.4-.131q2.594-.013,5.188,0a.6.6,0,0,1,.635.608.594.594,0,0,1-.637.6c-.865,0-1.729,0-2.594,0" transform="translate(-34.799 -43.393)" fill="#fff"/>
    <path id="Path_5435" data-name="Path 5435" d="M39.687,81.939c-.322,0-.643,0-.965,0a.607.607,0,1,1,0-1.212q.974,0,1.948,0a.607.607,0,1,1,0,1.212c-.328,0-.656,0-.983,0" transform="translate(-34.848 -73.851)" fill="#fff"/>
    <path id="Path_5436" data-name="Path 5436" d="M124.751,153.243c0,.2.007.392,0,.587a.6.6,0,1,1-1.209-.022c0-.392-.005-.783,0-1.175a.6.6,0,0,1,.584-.619.608.608,0,0,1,.624.6c.01.208,0,.417,0,.625" transform="translate(-113.019 -139.073)" fill="#fff"/>
    <path id="Path_5437" data-name="Path 5437" d="M121.951,122.783a.8.8,0,1,1,.8-.812.806.806,0,0,1-.8.812" transform="translate(-110.82 -110.857)" fill="#fff"/>
  </g>
</svg>
