<svg xmlns="http://www.w3.org/2000/svg" width="32" height="32" viewBox="0 0 32 32">
  <g id="ic_sign_off_list" data-name="ic_sign off list" transform="translate(-164 -599)">
    <rect id="Rectangle_4729" data-name="Rectangle 4729" width="32" height="32" transform="translate(164 599)" fill="none" opacity="0.215"/>
    <g id="Group_10227" data-name="Group 10227" transform="translate(-51.828 0.817)">
      <g id="Group_10224" data-name="Group 10224" transform="translate(-20.79 -1.194)">
        <line id="Line_335" data-name="Line 335" x2="9.207" transform="translate(244.293 615.111)" fill="none" stroke="#393939" stroke-linecap="round" stroke-linejoin="round" stroke-width="1.5"/>
        <line id="Line_334" data-name="Line 334" x2="10.65" transform="translate(244.293 611.305)" fill="none" stroke="#393939" stroke-linecap="round" stroke-linejoin="round" stroke-width="1.5"/>
        <line id="Line_336" data-name="Line 336" x2="3.796" transform="translate(244.293 618.869)" fill="none" stroke="#393939" stroke-linecap="round" stroke-linejoin="round" stroke-width="1.5"/>
        <g id="Group_10222" data-name="Group 10222" transform="translate(522.678 -6.547) rotate(45)">
          <g id="Union_1" data-name="Union 1" transform="translate(250.609 620.364)" fill="none" stroke-linecap="round" stroke-linejoin="round">
            <path d="M0,10.556V.5A.5.5,0,0,1,.5,0H3.493a.5.5,0,0,1,.5.5V10.556L2.013,13.981Z" stroke="none"/>
            <path d="M 2.013300180435181 13.98060035705566 L 3.992400169372559 10.5560998916626 L 3.992400169372559 0.500400185585022 C 3.992400169372559 0.2241001725196838 3.76830005645752 1.785278271881907e-07 3.492900133132935 1.785278271881907e-07 L 0.5004000663757324 1.785278271881907e-07 C 0.2241000831127167 1.785278271881907e-07 8.46862775460977e-08 0.2241001725196838 8.46862775460977e-08 0.500400185585022 L 8.46862775460977e-08 10.5560998916626 L 2.013300180435181 13.98060035705566 M 2.013272762298584 15.48060035705566 C 1.481733083724976 15.48060035705566 0.9897491335868835 15.19926929473877 0.7202200889587402 14.74081993103027 L -1.293079972267151 11.31632041931152 C -1.428559899330139 11.08588027954102 -1.49999988079071 10.82342052459717 -1.49999988079071 10.5560998916626 L -1.49999988079071 0.500400185585022 C -1.49999988079071 -0.6026198267936707 -0.6026198863983154 -1.49999988079071 0.5004000663757324 -1.49999988079071 L 3.492900133132935 -1.49999988079071 C 4.59542989730835 -1.49999988079071 5.492400169372559 -0.6026198267936707 5.492400169372559 0.500400185585022 L 5.492400169372559 10.5560998916626 C 5.492400169372559 10.81962013244629 5.422980308532715 11.07849979400635 5.291120052337646 11.30666065216064 L 3.312020063400269 14.73116016387939 C 3.044980049133301 15.1932201385498 2.552560091018677 15.47860050201416 2.018890142440796 15.48058986663818 C 2.017033338546753 15.48059749603271 2.015128374099731 15.48060035705566 2.013272762298584 15.48060035705566 Z" stroke="none" fill="#393939"/>
          </g>
          <line id="Line_332" data-name="Line 332" x2="5.013" transform="translate(250.5 623.041)" fill="none" stroke="#393939" stroke-width="1.5"/>
          <line id="Line_333" data-name="Line 333" x2="5.013" transform="translate(250.5 630.915)" fill="none" stroke="#393939" stroke-width="1.5"/>
        </g>
        <path id="Path_5384" data-name="Path 5384" d="M-1988.669,436.354v-2.977h-17.085v20.191h17.085v-2.727" transform="translate(2246.644 172)" fill="none" stroke="#393939" stroke-linecap="round" stroke-linejoin="round" stroke-width="1.5"/>
      </g>
    </g>
  </g>
</svg>
