<svg xmlns="http://www.w3.org/2000/svg" width="22" height="22" viewBox="0 0 22 22">
  <g id="ic_view" transform="translate(-866 -722)">
    <rect id="Rectangle_4187" data-name="Rectangle 4187" width="22" height="22" rx="1" transform="translate(866 722)" fill="#9accdb"/>
    <path id="eye-outline" d="M9.9,8.139a2.426,2.426,0,1,1-2.426,2.426A2.426,2.426,0,0,1,9.9,8.139M9.9,4.5a9.564,9.564,0,0,1,8.9,6.065,9.556,9.556,0,0,1-17.79,0A9.564,9.564,0,0,1,9.9,4.5M2.763,10.565a7.943,7.943,0,0,0,14.265,0,7.943,7.943,0,0,0-14.265,0Z" transform="translate(867 722.5)" fill="#fff"/>
  </g>
</svg>
